<?xml version="1.0" encoding="UTF-8"?><svg id="a" xmlns="http://www.w3.org/2000/svg" viewBox="0 0 280.3 188.5"><rect x="196.5" y="8.6" width="79" height="57.5" style="fill:#c5c5c5;"/><rect x="196.5" y="67.2" width="79" height="57.5" style="fill:#fff;"/><rect x="196.5" y="125.4" width="79" height="57.5" style="fill:#5163a6;"/><rect x="192.5" y="5.5" width="86.8" height="180" style="fill:none; stroke:#a5a5a5; stroke-miterlimit:10; stroke-width:2px;"/><path d="m235,23.9h0l-5.5,3-.8-3.3,7-3.7h3.7v31.9h-4.2v-27.9Z"/><rect x="26.4" width="30.3" height="162.1" style="fill:#3a3a3a;"/><rect x="29.6" y="4.2" width="24.1" height="22" style="fill:#fff;"/><rect x="29.6" y="30.5" width="24.1" height="22" style="fill:#fff;"/><rect x="29.6" y="56.9" width="24.1" height="22" style="fill:#fff;"/><rect x="29.6" y="83.2" width="24.1" height="22" style="fill:#fff;"/><rect x="29.6" y="109.6" width="24.1" height="22" style="fill:#fff;"/><rect x="29.6" y="135.9" width="24.1" height="22" style="fill:#fff;"/><path d="m35,7.8h0l-1.5.8-.2-.9,1.9-1h1v8.5h-1.1v-7.4Z"/><path d="m225.6,110.3v-2.6l3.4-3.3c8.1-7.7,11.8-11.9,11.9-16.7,0-3.2-1.6-6.2-6.3-6.2s-5.3,1.5-6.8,2.7l-1.4-3c2.2-1.9,5.3-3.2,9-3.2,6.9,0,9.8,4.7,9.8,9.3s-4.3,10.6-11,17.1l-2.5,2.4h0c0,0,14.3,0,14.3,0v3.6h-20.4Z"/><path d="m226.7,163.6c1.2.8,4.1,2,7.1,2,5.5,0,7.3-3.5,7.2-6.2,0-4.5-4.1-6.4-8.2-6.4h-2.4v-3.2h2.4c3.1,0,7.1-1.6,7.1-5.4s-1.6-4.8-5.6-4.8-5,1.1-6.4,2.1l-1.1-3.1c1.7-1.2,4.9-2.5,8.3-2.5,6.3,0,9.1,3.7,9.1,7.6s-2,6.1-5.9,7.5h0c3.9.9,7.1,3.8,7.1,8.3s-4,9.6-11.6,9.6-6.7-1.1-8.3-2.2l1.2-3.3Z" style="fill:#fff;"/><rect x="65.9" y="-12.9" width="30.3" height="162.1" transform="translate(12.9 149.2) rotate(-90)" style="fill:#3a3a3a;"/><rect x="3.2" y="57.1" width="24.1" height="22.1" transform="translate(-52.9 83.4) rotate(-90)" style="fill:#fff;"/><rect x="29.5" y="57.2" width="24.1" height="22" transform="translate(-26.6 109.7) rotate(-90)" style="fill:#fff;"/><rect x="55.8" y="57.2" width="24.1" height="22" transform="translate(-.3 136) rotate(-90)" style="fill:#fff;"/><rect x="82.2" y="57.2" width="24.1" height="22" transform="translate(26.1 162.4) rotate(-90)" style="fill:#fff;"/><rect x="108.5" y="57.2" width="24.1" height="22" transform="translate(52.4 188.7) rotate(-90)" style="fill:#fff;"/><rect x="134.9" y="57.2" width="24.1" height="22" transform="translate(78.8 215.1) rotate(-90)" style="fill:#fff;"/><path d="m7.3,67.1v-.7l.9-.9c2.2-2.1,3.2-3.2,3.2-4.5,0-.9-.4-1.7-1.7-1.7s-1.4.4-1.8.7l-.4-.8c.6-.5,1.4-.9,2.4-.9,1.8,0,2.6,1.3,2.6,2.5s-1.1,2.8-2.9,4.6l-.7.6h0s3.8,0,3.8,0v1h-5.4Z"/><rect x="131.8" y="26.4" width="30.3" height="162.1" style="fill:#5163a6;"/><rect x="134.9" y="30.6" width="24.1" height="22" style="fill:#aeceff;"/><rect x="134.9" y="56.9" width="24.1" height="22" style="fill:#aeceff;"/><rect x="134.9" y="83.3" width="24.1" height="22" style="fill:#aeceff;"/><rect x="134.9" y="109.6" width="24.1" height="22" style="fill:#aeceff;"/><rect x="134.9" y="136" width="24.1" height="22" style="fill:#aeceff;"/><rect x="134.9" y="162.3" width="24.1" height="22" style="fill:#aeceff;"/><path d="m137.5,39.7c.3.2,1.1.5,1.9.5,1.5,0,1.9-.9,1.9-1.6,0-1.2-1.1-1.7-2.2-1.7h-.6v-.9h.6c.8,0,1.9-.4,1.9-1.4s-.4-1.3-1.5-1.3-1.3.3-1.7.6l-.3-.8c.4-.3,1.3-.7,2.2-.7,1.7,0,2.4,1,2.4,2s-.5,1.6-1.6,2h0c1,.2,1.9,1,1.9,2.2s-1.1,2.6-3.1,2.6-1.8-.3-2.2-.6l.3-.9Z"/></svg>